<svg width="28" height="28" viewBox="0 0 28 28" fill="none" xmlns="http://www.w3.org/2000/svg">
<path d="M27.6571 26.0114L20.9257 19.28C22.5943 17.2457 23.6 14.64 23.6 11.8C23.6 5.28571 18.3143 0 11.8 0C5.28 0 0 5.28571 0 11.8C0 18.3143 5.28 23.6 11.8 23.6C14.64 23.6 17.24 22.6 19.2743 20.9314L26.0057 27.6571C26.4629 28.1143 27.2 28.1143 27.6571 27.6571C28.1143 27.2057 28.1143 26.4629 27.6571 26.0114ZM11.8 21.2514C6.58286 21.2514 2.34286 17.0114 2.34286 11.8C2.34286 6.58857 6.58286 2.34286 11.8 2.34286C17.0114 2.34286 21.2571 6.58857 21.2571 11.8C21.2571 17.0114 17.0114 21.2514 11.8 21.2514Z" fill="#2C87F2" fill-opacity="0.78"/>
</svg>